<svg height="64" viewBox="0 0 361 64" width="361" xmlns="http://www.w3.org/2000/svg"><path d="m19.229139 0h322.541722c6.686391 0 9.111037.69619208 11.555482 2.00349528 2.444444 1.30730319 4.362859 3.2257175 5.670162 5.67016194 1.307303 2.44444448 2.003495 4.86909128 2.003495 11.55548178v25.541722c0 6.6863905-.696192 9.1110373-2.003495 11.5554818-1.307303 2.4444444-3.225718 4.3628587-5.670162 5.6701619-2.444445 1.3073032-4.869091 2.0034953-11.555482 2.0034953h-322.541722c-6.6863905 0-9.1110373-.6961921-11.55548178-2.0034953-2.44444444-1.3073032-4.36285875-3.2257175-5.67016194-5.6701619-1.3073032-2.4444445-2.00349528-4.8690913-2.00349528-11.5554818v-25.541722c0-6.6863905.69619208-9.1110373 2.00349528-11.55548178 1.30730319-2.44444444 3.2257175-4.36285875 5.67016194-5.67016194 2.44444448-1.3073032 4.86909128-2.00349528 11.55548178-2.00349528zm9.740861 44.342c7.448 0 10.754-3.268 10.754-8.018 0-4.864-3.42-7.03-8.36-8.056l-3.61-.76c-2.584-.57-3.42-1.558-3.42-2.926 0-1.634 1.406-2.85 4.598-2.85 3.42 0 4.902 1.71 5.054 3.762h5.282c-.038-4.978-4.294-8.436-10.26-8.436-6.156 0-10.032 3.04-10.032 7.524 0 4.826 3.268 6.764 7.866 7.752l3.876.836c2.508.532 3.648 1.482 3.648 3.268 0 2.014-1.596 3.268-5.396 3.268-3.268 0-5.358-1.482-5.586-4.484h-5.282c.266 5.51 3.952 9.12 10.868 9.12zm16.948-22.572c2.014 0 3.154-1.178 3.154-3.116 0-1.862-1.14-3.04-3.154-3.04-2.09 0-3.154 1.178-3.154 3.04 0 1.938 1.064 3.116 3.154 3.116zm-2.584 22.23h5.092v-19.76h-5.092zm32.11-20.102c-3.078 0-5.016 1.406-6.042 2.926h-.114c-1.14-1.862-3.154-2.926-5.928-2.926-2.698 0-4.446 1.102-5.548 2.584h-.152l-.38-2.242h-4.56v19.76h5.092v-10.944c0-2.812 1.634-4.522 3.99-4.522 2.508 0 3.458 1.482 3.458 3.952v11.514h5.054v-10.944c0-2.774 1.368-4.522 3.762-4.522 2.47 0 3.42 1.482 3.42 3.952v11.514h5.092v-12.958c0-4.37-2.774-7.144-7.144-7.144zm11.438 28.804h5.092v-10.83h.152c.988 1.292 2.622 2.47 5.472 2.47 5.13 0 8.094-4.332 8.094-10.184 0-6.08-3.116-10.26-8.094-10.26-2.85 0-4.484 1.178-5.472 2.47h-.152l-.532-2.128h-4.56zm9.272-12.844c-3.23 0-4.37-2.622-4.37-5.7 0-3.116 1.216-5.776 4.37-5.776 3.23 0 4.37 2.66 4.37 5.776 0 3.078-1.102 5.7-4.37 5.7zm13.072 4.142h5.092v-28.12h-5.092zm17.822.342c5.092 0 8.322-2.926 8.854-6.498h-4.978c-.38 1.216-1.596 2.28-3.876 2.28-2.926 0-4.294-1.9-4.332-4.598h13.452v-1.976c0-5.396-3.306-9.652-9.196-9.652-6.346 0-9.462 4.636-9.462 10.26 0 5.7 3.42 10.184 9.538 10.184zm-4.294-12.198c.114-2.242 1.368-3.99 4.218-3.99 2.66 0 3.914 1.748 3.99 3.99zm28.5 11.856h5.206v-10.678h11.894v-4.674h-11.894v-6.574h13.11v-4.674h-18.316zm25.068-22.23c2.014 0 3.154-1.178 3.154-3.116 0-1.862-1.14-3.04-3.154-3.04-2.09 0-3.154 1.178-3.154 3.04 0 1.938 1.064 3.116 3.154 3.116zm-2.584 22.23h5.092v-19.76h-5.092zm9.386 0h5.092v-28.12h-5.092zm17.822.342c5.092 0 8.322-2.926 8.854-6.498h-4.978c-.38 1.216-1.596 2.28-3.876 2.28-2.926 0-4.294-1.9-4.332-4.598h13.452v-1.976c0-5.396-3.306-9.652-9.196-9.652-6.346 0-9.462 4.636-9.462 10.26 0 5.7 3.42 10.184 9.538 10.184zm-4.294-12.198c.114-2.242 1.368-3.99 4.218-3.99 2.66 0 3.914 1.748 3.99 3.99zm28.5 11.856h17.48v-4.674h-12.274v-21.926h-5.206zm28.88.342c6.346 0 9.576-4.37 9.576-10.184 0-5.852-3.306-10.26-9.576-10.26-6.308 0-9.614 4.408-9.614 10.26s3.23 10.184 9.614 10.184zm0-4.484c-2.85 0-4.408-1.938-4.408-5.7s1.52-5.776 4.408-5.776c2.85 0 4.408 1.976 4.408 5.776 0 3.762-1.558 5.7-4.408 5.7zm21.394 13.186c5.548 0 9.424-3.23 9.424-8.056v-20.748h-4.56l-.532 2.128h-.152c-.988-1.292-2.622-2.47-5.434-2.47-5.054 0-8.132 4.18-8.132 10.26 0 5.852 2.964 10.184 8.132 10.184 2.812 0 4.446-1.178 5.434-2.47h.152v3.04c0 2.128-1.406 3.762-4.332 3.762-2.318 0-3.686-1.254-3.838-2.736h-4.978c.114 4.256 3.572 7.106 8.816 7.106zm.152-13.186c-3.268 0-4.37-2.622-4.37-5.7 0-3.116 1.178-5.776 4.37-5.776s4.37 2.66 4.37 5.776c0 3.078-1.14 5.7-4.37 5.7zm21.812 13.186c5.548 0 9.424-3.23 9.424-8.056v-20.748h-4.56l-.532 2.128h-.152c-.988-1.292-2.622-2.47-5.434-2.47-5.054 0-8.132 4.18-8.132 10.26 0 5.852 2.964 10.184 8.132 10.184 2.812 0 4.446-1.178 5.434-2.47h.152v3.04c0 2.128-1.406 3.762-4.332 3.762-2.318 0-3.686-1.254-3.838-2.736h-4.978c.114 4.256 3.572 7.106 8.816 7.106zm.152-13.186c-3.268 0-4.37-2.622-4.37-5.7 0-3.116 1.178-5.776 4.37-5.776s4.37 2.66 4.37 5.776c0 3.078-1.14 5.7-4.37 5.7zm21.964 4.484c5.092 0 8.322-2.926 8.854-6.498h-4.978c-.38 1.216-1.596 2.28-3.876 2.28-2.926 0-4.294-1.9-4.332-4.598h13.452v-1.976c0-5.396-3.306-9.652-9.196-9.652-6.346 0-9.462 4.636-9.462 10.26 0 5.7 3.42 10.184 9.538 10.184zm-4.294-12.198c.114-2.242 1.368-3.99 4.218-3.99 2.66 0 3.914 1.748 3.99 3.99zm16.948 11.856h4.826v-9.69c0-3.572 1.748-5.662 4.788-5.662h1.786v-4.712h-1.444c-2.508 0-4.256 1.444-5.13 3.306h-.152l-.38-3.002h-4.294z" fill="#2969b7" fill-rule="evenodd"/></svg>